<?xml version="1.0" encoding="UTF-8"?>
<!DOCTYPE svg PUBLIC "-//W3C//DTD SVG 1.1//EN" "http://www.w3.org/Graphics/SVG/1.1/DTD/svg11.dtd">
<svg xmlns="http://www.w3.org/2000/svg" version="1.1" width="54px" height="672px" style="shape-rendering:geometricPrecision; text-rendering:geometricPrecision; image-rendering:optimizeQuality; fill-rule:evenodd; clip-rule:evenodd" xmlns:xlink="http://www.w3.org/1999/xlink">
<g><path style="opacity:0.834" fill="#fefffe" d="M 24.5,15.5 C 33.6921,17.826 40.8588,23.1594 46,31.5C 46.6454,35.3622 46.4787,39.1955 45.5,43C 50.4506,51.7894 49.284,59.6227 42,66.5C 41.8333,67.8333 41.6667,69.1667 41.5,70.5C 49.1654,94.2368 51.6654,118.57 49,143.5C 47.672,153.978 45.172,164.145 41.5,174C 42.462,180.051 44.1287,185.884 46.5,191.5C 50.094,192.888 51.4273,195.555 50.5,199.5C 49.448,199.351 48.448,199.517 47.5,200C 51.0096,201.907 52.1762,204.74 51,208.5C 48.294,210.871 45.9606,213.537 44,216.5C 42.1183,224.719 41.1183,233.053 41,241.5C 38.5043,337.13 36.5043,432.796 35,528.5C 34.3581,530.762 33.5248,532.929 32.5,535C 33,535.5 33.5,536 34,536.5C 34.1667,544.5 34.3333,552.5 34.5,560.5C 33.0787,594.127 31.9121,627.794 31,661.5C 28.6542,666.257 24.8209,668.257 19.5,667.5C 13.6837,667.534 9.51701,664.867 7,659.5C 7.67071,525.621 9.50404,391.787 12.5,258C 12.5869,244.047 11.4202,230.214 9,216.5C 5.35567,213.536 2.52234,210.036 0.5,206C 0.700011,203.463 2.03334,201.796 4.5,201C 0.316769,197.279 0.650102,194.113 5.5,191.5C 5.99859,188.783 7.16526,186.449 9,184.5C 9.62886,181.689 10.1289,178.856 10.5,176C 1.51124,146.466 0.0112382,116.633 6,86.5C 7.73226,80.4698 9.56559,74.4698 11.5,68.5C 8.86713,64.8583 6.20046,61.1916 3.5,57.5C 3.5,54.8333 3.5,52.1667 3.5,49.5C 4.63992,47.5266 5.97325,45.6933 7.5,44C 5.12015,39.2461 4.95348,34.4127 7,29.5C 12.0822,23.7322 17.9155,19.0655 24.5,15.5 Z"/></g>
</svg>
