<?xml version="1.0" encoding="UTF-8"?>
<!DOCTYPE svg PUBLIC "-//W3C//DTD SVG 1.1//EN" "http://www.w3.org/Graphics/SVG/1.1/DTD/svg11.dtd">
<svg xmlns="http://www.w3.org/2000/svg" version="1.1" width="107px" height="672px" style="shape-rendering:geometricPrecision; text-rendering:geometricPrecision; image-rendering:optimizeQuality; fill-rule:evenodd; clip-rule:evenodd" xmlns:xlink="http://www.w3.org/1999/xlink">
<g><path style="opacity:0.843" fill="#fefffe" d="M 106.5,150.5 C 106.5,158.833 106.5,167.167 106.5,175.5C 103.795,180.737 100.795,185.903 97.5,191C 92.5262,195.135 86.8596,196.468 80.5,195C 79.6433,194.311 78.9767,193.478 78.5,192.5C 81.4123,189.755 83.7456,186.589 85.5,183C 86.9365,167.446 79.9365,161.446 64.5,165C 62.8245,167.174 61.8245,169.674 61.5,172.5C 63.105,178.814 64.605,185.147 66,191.5C 66.8309,291.874 66.6642,392.207 65.5,492.5C 66.1647,549.363 66.8314,606.196 67.5,663C 66.6361,665.071 65.3028,666.738 63.5,668C 55.8333,668.667 48.1667,668.667 40.5,668C 39.1068,666.829 38.2735,665.329 38,663.5C 37.6667,658.167 37.3333,652.833 37,647.5C 32.5084,643.683 30.0084,638.85 29.5,633C 31.6668,624.178 34.3334,615.844 37.5,608C 31.949,602.797 27.6157,596.797 24.5,590C 29.1772,578.808 34.0105,567.641 39,556.5C 39.7083,478.297 39.2083,400.13 37.5,322C 37.3995,285.776 37.8995,249.61 39,213.5C 37.4445,205.615 35.1112,197.948 32,190.5C 25.3094,182.811 18.3094,175.478 11,168.5C 6.61611,161.727 2.78278,154.727 -0.5,147.5C -0.5,133.833 -0.5,120.167 -0.5,106.5C 6.34851,91.8217 17.3485,81.3217 32.5,75C 51.3858,61.0485 59.8858,42.2152 58,18.5C 60.1969,16.2691 62.5302,16.2691 65,18.5C 67.147,23.4602 69.8136,28.1269 73,32.5C 77.6153,43.789 80.4486,55.289 81.5,67C 76.9206,76.9812 69.5872,84.3146 59.5,89C 53.0596,90.6957 47.2263,93.5291 42,97.5C 39.4425,103.843 41.4425,107.843 48,109.5C 53.2362,109.48 56.4029,106.98 57.5,102C 56.6777,99.5661 56.3444,97.0661 56.5,94.5C 62.8659,93.5302 68.5325,95.0302 73.5,99C 76.7511,103.514 77.2511,108.347 75,113.5C 71.9326,116.906 68.5992,119.906 65,122.5C 62.7571,128.994 64.9237,132.828 71.5,134C 87.0015,131.728 98.6681,137.228 106.5,150.5 Z"/></g>
</svg>
