<?xml version="1.0" encoding="UTF-8"?>
<!DOCTYPE svg PUBLIC "-//W3C//DTD SVG 1.1//EN" "http://www.w3.org/Graphics/SVG/1.1/DTD/svg11.dtd">
<svg xmlns="http://www.w3.org/2000/svg" version="1.1" width="97px" height="673px" style="shape-rendering:geometricPrecision; text-rendering:geometricPrecision; image-rendering:optimizeQuality; fill-rule:evenodd; clip-rule:evenodd" xmlns:xlink="http://www.w3.org/1999/xlink">
<g><path style="opacity:0.826" fill="#fefffe" d="M 96.5,44.5 C 96.5,48.8333 96.5,53.1667 96.5,57.5C 93.9984,59.1696 91.9984,61.3363 90.5,64C 89.1667,64.6667 87.8333,65.3333 86.5,66C 79.2599,67.8103 71.9266,69.1436 64.5,70C 61.5598,70.212 59.7264,71.712 59,74.5C 57.5865,82.5587 58.5865,90.2254 62,97.5C 62.8333,98.3333 63.6667,99.1667 64.5,100C 68.5115,101.335 72.5115,102.669 76.5,104C 80.6394,109.269 81.4727,115.103 79,121.5C 74.7525,123.743 71.0858,126.743 68,130.5C 65.077,136.934 62.7437,143.601 61,150.5C 60.4934,201.333 59.9934,252.167 59.5,303C 60.6639,418.973 60.8306,534.806 60,650.5C 57.9348,653.876 54.9348,655.209 51,654.5C 44.9997,654.511 41.3331,651.511 40,645.5C 38.3567,489.322 35.5234,333.322 31.5,177.5C 31.6667,175.5 31.8333,173.5 32,171.5C 32.5,171 33,170.5 33.5,170C 32.0866,160.3 30.5866,150.467 29,140.5C 27.6074,136.714 25.9407,133.048 24,129.5C 19.6321,125.467 15.6321,121.134 12,116.5C 11.3333,113.833 11.3333,111.167 12,108.5C 16.371,103.477 21.871,100.31 28.5,99C 34.1408,94.5971 36.8075,88.7637 36.5,81.5C 36.1893,77.7652 35.1893,74.2652 33.5,71C 25.9263,68.9647 18.2596,67.2981 10.5,66C 5.76516,64.4185 2.0985,61.5851 -0.5,57.5C -0.5,51.8333 -0.5,46.1667 -0.5,40.5C 7.01454,30.4871 16.0145,21.9871 26.5,15C 30.7244,9.43198 36.0577,5.43198 42.5,3C 48.0642,1.99 53.3975,2.65666 58.5,5C 64.6169,12.1234 71.6169,18.1234 79.5,23C 83.3063,26.8063 87.1396,30.6396 91,34.5C 92.5932,38.0242 94.4265,41.3576 96.5,44.5 Z"/></g>
</svg>
