<?xml version="1.0" encoding="UTF-8"?>
<!DOCTYPE svg PUBLIC "-//W3C//DTD SVG 1.1//EN" "http://www.w3.org/Graphics/SVG/1.1/DTD/svg11.dtd">
<svg xmlns="http://www.w3.org/2000/svg" version="1.1" width="82px" height="672px" style="shape-rendering:geometricPrecision; text-rendering:geometricPrecision; image-rendering:optimizeQuality; fill-rule:evenodd; clip-rule:evenodd" xmlns:xlink="http://www.w3.org/1999/xlink">
<g><path style="opacity:0.865" fill="#fefffe" d="M 81.5,52.5 C 81.5,61.5 81.5,70.5 81.5,79.5C 75.8413,93.0259 69.008,106.026 61,118.5C 60.2057,121.471 59.539,124.471 59,127.5C 58.158,150.187 58.4913,172.854 60,195.5C 64.3398,223.873 69.0065,252.206 74,280.5C 74.6667,291.833 74.6667,303.167 74,314.5C 66.0593,339.424 60.2259,364.59 56.5,390C 55.1865,406.339 55.1865,422.672 56.5,439C 62.6228,461.246 64.1228,483.746 61,506.5C 59.1901,510.793 57.3568,515.126 55.5,519.5C 56.0933,521.382 56.7599,523.215 57.5,525C 53.2899,544.643 50.1233,564.476 48,584.5C 47.0434,609.504 46.0434,634.504 45,659.5C 44.5216,666.319 41.0216,668.819 34.5,667C 30.2168,663.076 28.2168,658.41 28.5,653C 22.652,619.97 20.4853,586.803 22,553.5C 28.8872,523.762 30.2205,493.762 26,463.5C 24.0928,449.15 22.0928,434.817 20,420.5C 19.3333,407.833 19.3333,395.167 20,382.5C 23.5854,363.078 27.5854,343.745 32,324.5C 34.6716,300.334 33.6716,276.334 29,252.5C 25.2029,237.177 21.5362,221.844 18,206.5C 16.1605,191.726 15.3272,176.892 15.5,162C 15.6154,148.125 16.1154,134.292 17,120.5C 16.587,117.768 15.9203,115.101 15,112.5C 7.63061,102.433 2.46394,91.4329 -0.5,79.5C -0.5,72.8333 -0.5,66.1667 -0.5,59.5C 2.57754,40.2269 12.9109,26.0603 30.5,17C 49.58,14.4546 64.4133,21.288 75,37.5C 77.5263,42.4675 79.693,47.4675 81.5,52.5 Z"/></g>
</svg>
