<?xml version="1.0" encoding="UTF-8"?>
<!DOCTYPE svg PUBLIC "-//W3C//DTD SVG 1.1//EN" "http://www.w3.org/Graphics/SVG/1.1/DTD/svg11.dtd">
<svg xmlns="http://www.w3.org/2000/svg" version="1.1" width="58px" height="672px" style="shape-rendering:geometricPrecision; text-rendering:geometricPrecision; image-rendering:optimizeQuality; fill-rule:evenodd; clip-rule:evenodd" xmlns:xlink="http://www.w3.org/1999/xlink">
<g><path style="opacity:0.862" fill="#fefffe" d="M 21.5,15.5 C 46.2038,15.0344 57.7038,27.0344 56,51.5C 53.8691,57.2513 51.3691,62.7513 48.5,68C 49.8126,71.3689 50.646,74.8689 51,78.5C 51.6667,88.1667 51.6667,97.8333 51,107.5C 49.4245,117.378 47.5912,127.211 45.5,137C 46.7673,142.903 48.2673,148.736 50,154.5C 51.4332,164.797 51.7665,175.131 51,185.5C 49.1699,190.495 47.3365,195.495 45.5,200.5C 46.8715,206.321 48.7049,211.987 51,217.5C 51.6667,225.5 51.6667,233.5 51,241.5C 46.6361,252.982 44.4694,264.816 44.5,277C 45.448,277.483 46.448,277.649 47.5,277.5C 47.9997,282.224 48.6664,287.224 49.5,292.5C 48.4053,300.475 46.7387,308.308 44.5,316C 49.1503,328.448 50.6503,341.281 49,354.5C 47.3729,360.413 45.2062,366.079 42.5,371.5C 46.7277,380.311 48.3944,389.645 47.5,399.5C 47.3333,404.167 47.1667,408.833 47,413.5C 46.5209,416.624 45.3543,419.457 43.5,422C 45.3216,434.204 45.8216,446.704 45,459.5C 43.6435,464.063 42.4768,468.73 41.5,473.5C 42.0993,476.702 43.266,479.702 45,482.5C 45.6667,491.833 45.6667,501.167 45,510.5C 44.5506,513.132 43.7173,515.632 42.5,518C 45.8483,525.642 47.1817,533.642 46.5,542C 46.3333,546.167 46.1667,550.333 46,554.5C 45.8534,557.571 45.0201,560.404 43.5,563C 43.8333,563.333 44.1667,563.667 44.5,564C 43.6707,595.095 43.1707,626.262 43,657.5C 38.6482,667.333 31.3149,670.333 21,666.5C 18.3174,664.15 15.9841,661.483 14,658.5C 13.6667,627.167 13.3333,595.833 13,564.5C 9.58537,548.789 9.75203,533.122 13.5,517.5C 10.5783,502.731 10.9116,488.064 14.5,473.5C 12.198,464.988 11.198,456.321 11.5,447.5C 12.1478,436.538 12.8145,425.704 13.5,415C 10.712,414.274 9.21199,412.44 9,409.5C 8.33333,402.833 8.33333,396.167 9,389.5C 10.5796,383.348 12.0796,377.182 13.5,371C 11.8843,365.823 10.0509,360.657 8,355.5C 7.17595,345.788 7.50928,336.121 9,326.5C 13.4383,318.936 13.4383,311.269 9,303.5C 8.83333,299.5 8.66667,295.5 8.5,291.5C 9.16827,281.983 10.1683,272.483 11.5,263C 11.3333,260.833 11.1667,258.667 11,256.5C 8.37099,250.186 6.20433,243.686 4.5,237C 4.56144,231.693 4.56144,226.359 4.5,221C 7.11035,214.443 9.44368,207.776 11.5,201C 8.56703,194.534 6.23369,187.867 4.5,181C 4.5,176.333 4.5,171.667 4.5,167C 6.66978,156.835 9.00311,147.001 11.5,137.5C 8.92056,125.688 6.58723,113.854 4.5,102C 4.54736,95.6922 4.54736,89.3588 4.5,83C 5.83333,77.6667 7.16667,72.3333 8.5,67C -0.846445,53.6533 -1.67978,39.82 6,25.5C 11.0391,21.164 16.2058,17.8307 21.5,15.5 Z"/></g>
</svg>
