<?xml version="1.0" encoding="UTF-8"?>
<!DOCTYPE svg PUBLIC "-//W3C//DTD SVG 1.1//EN" "http://www.w3.org/Graphics/SVG/1.1/DTD/svg11.dtd">
<svg xmlns="http://www.w3.org/2000/svg" version="1.1" width="54px" height="672px" style="shape-rendering:geometricPrecision; text-rendering:geometricPrecision; image-rendering:optimizeQuality; fill-rule:evenodd; clip-rule:evenodd" xmlns:xlink="http://www.w3.org/1999/xlink">
<g><path style="opacity:0.847" fill="#fefffe" d="M 21.5,15.5 C 30.6855,13.7829 38.5189,16.1162 45,22.5C 45.6667,28.1667 45.6667,33.8333 45,39.5C 42.8489,43.8022 40.6822,48.1356 38.5,52.5C 49.2341,63.0616 50.4007,74.7282 42,87.5C 41.3333,101.167 41.3333,114.833 42,128.5C 45.0555,132.048 47.8889,135.715 50.5,139.5C 49.1451,140.675 49.3117,141.675 51,142.5C 51.6667,147.5 51.6667,152.5 51,157.5C 48.8391,162.492 46.1724,167.159 43,171.5C 42.3333,193.167 42.3333,214.833 43,236.5C 46.4082,239.583 49.0749,243.249 51,247.5C 53.1523,257.702 50.819,266.702 44,274.5C 43.3333,300.833 43.3333,327.167 44,353.5C 49.0643,357.885 51.231,363.385 50.5,370C 50.4905,376.867 48.3238,383.034 44,388.5C 42.8117,414.825 42.4784,441.159 43,467.5C 49.0781,474.783 51.0781,483.116 49,492.5C 47.7441,496.016 45.7441,499.016 43,501.5C 42.095,516.846 41.095,532.179 40,547.5C 39.3333,558.167 39.3333,568.833 40,579.5C 45.946,591.176 45.946,602.843 40,614.5C 39.6667,628.833 39.3333,643.167 39,657.5C 34.3351,667.202 26.8351,670.035 16.5,666C 14.2911,664.127 12.4578,661.96 11,659.5C 10.6667,645.167 10.3333,630.833 10,616.5C 5.39316,604.127 5.39316,591.794 10,579.5C 9.86567,554.841 9.53234,530.174 9,505.5C 6.68029,501.532 4.34696,497.532 2,493.5C 1.33333,488.167 1.33333,482.833 2,477.5C 4.87618,473.081 7.20951,468.414 9,463.5C 8.91839,439.172 8.58505,414.839 8,390.5C 6.26854,386.705 4.26854,383.038 2,379.5C 1.33333,373.5 1.33333,367.5 2,361.5C 4.34696,357.468 6.68029,353.468 9,349.5C 9.66667,325.167 9.66667,300.833 9,276.5C 6.68222,271.864 4.34889,267.198 2,262.5C -0.749195,252.033 1.91747,243.367 10,236.5C 11.1576,215.085 11.1576,193.751 10,172.5C 7.93566,168.039 5.60232,163.706 3,159.5C -1.24103,146.904 1.75897,136.571 12,128.5C 12.6667,114.833 12.6667,101.167 12,87.5C 7.67271,79.7189 6.33938,71.3856 8,62.5C 9.77111,58.4086 12.2711,54.9086 15.5,52C 9.86326,42.911 8.02993,33.0777 10,22.5C 13.7547,19.0785 17.5881,16.7452 21.5,15.5 Z"/></g>
</svg>
