<?xml version="1.0" encoding="UTF-8"?>
<!DOCTYPE svg PUBLIC "-//W3C//DTD SVG 1.1//EN" "http://www.w3.org/Graphics/SVG/1.1/DTD/svg11.dtd">
<svg xmlns="http://www.w3.org/2000/svg" version="1.1" width="61px" height="673px" style="shape-rendering:geometricPrecision; text-rendering:geometricPrecision; image-rendering:optimizeQuality; fill-rule:evenodd; clip-rule:evenodd" xmlns:xlink="http://www.w3.org/1999/xlink">
<g><path style="opacity:0.786" fill="#fefffe" d="M -0.5,65.5 C -0.5,60.1667 -0.5,54.8333 -0.5,49.5C 1.34004,47.832 3.34004,46.332 5.5,45C 7.11238,44.2797 8.61238,44.4464 10,45.5C 10.9208,55.5163 13.2542,65.183 17,74.5C 26.4126,89.5747 34.7459,88.908 42,72.5C 48.6968,53.8039 49.1968,34.9705 43.5,16C 45.6657,12.1207 48.999,10.6207 53.5,11.5C 60.8147,35.0182 61.3147,58.6848 55,82.5C 50.7419,94.95 45.9086,107.117 40.5,119C 41.1271,121.135 41.6271,123.302 42,125.5C 47.0957,132.089 50.5957,139.422 52.5,147.5C 49.5,158.333 46,169 42,179.5C 41.9832,222.026 41.1498,264.526 39.5,307C 40.2524,317.816 40.7524,328.65 41,339.5C 43.06,344.62 45.3933,349.62 48,354.5C 49.9658,363.825 49.9658,373.158 48,382.5C 45.2354,386.261 42.9021,390.261 41,394.5C 40.3333,459.167 40.3333,523.833 41,588.5C 42.1817,592.032 43.8484,595.366 46,598.5C 46.7982,601.711 46.2982,604.711 44.5,607.5C 47.5771,610.409 50.0771,613.742 52,617.5C 52.2078,619.859 52.3744,622.026 52.5,624C 51.3601,625.973 50.0267,627.807 48.5,629.5C 50.1381,632.304 51.9715,634.971 54,637.5C 56.3482,645.816 53.5149,651.316 45.5,654C 34.8333,654.667 24.1667,654.667 13.5,654C 5.45586,650.91 2.78919,645.244 5.5,637C 8.06106,634.553 10.3944,631.887 12.5,629C 6.84176,627.171 5.00843,623.337 7,617.5C 9.43387,614.061 12.2672,610.894 15.5,608C 12.2564,601.849 13.0898,596.349 18,591.5C 18.3333,590.167 18.6667,588.833 19,587.5C 19.1548,522.833 18.8214,458.166 18,393.5C 7.05479,377.08 6.72146,360.413 17,343.5C 17.3333,341.833 17.6667,340.167 18,338.5C 18.9053,284.821 18.572,231.155 17,177.5C 12.7754,167.223 9.27543,156.723 6.5,146C 8.81554,138.869 12.3155,132.369 17,126.5C 19.0715,119.916 18.4048,113.583 15,107.5C 11.6212,101.373 8.62119,95.0394 6,88.5C 4.19892,80.234 2.03225,72.5673 -0.5,65.5 Z"/></g>
</svg>
