<?xml version="1.0" encoding="UTF-8"?>
<!DOCTYPE svg PUBLIC "-//W3C//DTD SVG 1.1//EN" "http://www.w3.org/Graphics/SVG/1.1/DTD/svg11.dtd">
<svg xmlns="http://www.w3.org/2000/svg" version="1.1" width="104px" height="672px" style="shape-rendering:geometricPrecision; text-rendering:geometricPrecision; image-rendering:optimizeQuality; fill-rule:evenodd; clip-rule:evenodd" xmlns:xlink="http://www.w3.org/1999/xlink">
<g><path style="opacity:0.842" fill="#fefffe" d="M -0.5,154.5 C -0.5,153.167 -0.5,151.833 -0.5,150.5C 2.65901,149.418 5.32568,147.584 7.5,145C 12.7513,144.196 17.918,144.363 23,145.5C 23.5,144.5 24,143.5 24.5,142.5C 23.8839,139.89 23.5505,137.223 23.5,134.5C 25.0804,124.547 25.5804,114.547 25,104.5C 19.7321,95.6293 14.7321,86.6293 10,77.5C 2.2137,50.8059 8.38036,27.9726 28.5,9C 34.3806,3.98537 41.2139,1.8187 49,2.5C 53.2358,2.49376 57.4025,2.99376 61.5,4C 89.1086,19.7559 97.942,42.9226 88,73.5C 86.4848,77.8966 84.8181,82.2299 83,86.5C 75.8787,94.7452 70.8787,104.079 68,114.5C 65.6483,153.875 68.3149,192.875 76,231.5C 81.1606,250.648 83.994,270.148 84.5,290C 84.7165,300.867 82.8831,311.034 79,320.5C 73.145,343.607 68.645,366.941 65.5,390.5C 65.8333,391.833 66.1667,393.167 66.5,394.5C 81.3675,398.534 91.2009,407.868 96,422.5C 96.6667,430.167 96.6667,437.833 96,445.5C 95.0543,450.058 93.0543,454.058 90,457.5C 83.6667,462.5 78,468.167 73,474.5C 71.8346,486.273 70.5013,497.94 69,509.5C 66.6773,518.414 65.1773,527.247 64.5,536C 73.893,536.113 83.2264,536.78 92.5,538C 98.9465,540.731 101.947,545.565 101.5,552.5C 101.333,554.833 101.167,557.167 101,559.5C 96.4576,565.71 90.9576,570.876 84.5,575C 75.6461,579.843 66.4795,584.01 57,587.5C 55.2414,612.789 53.9081,638.122 53,663.5C 51.2871,668.038 48.1205,669.538 43.5,668C 41.0439,665.592 39.2106,662.759 38,659.5C 33.6838,637.709 31.0171,615.709 30,593.5C 28.4708,592.271 27.3041,590.771 26.5,589C 28.0037,587.509 28.8371,585.676 29,583.5C 29.2893,570.395 30.1227,557.561 31.5,545C 28.2716,542.037 24.6049,539.537 20.5,537.5C 7.09556,523.125 4.9289,507.125 14,489.5C 19.8625,483.491 26.3625,478.324 33.5,474C 34.8941,473.044 35.5607,471.711 35.5,470C 33.5262,451.069 30.8595,432.236 27.5,413.5C 28.481,409.72 27.981,406.053 26,402.5C 10.9918,391.119 8.32511,377.119 18,360.5C 22.8552,354.311 28.3552,348.811 34.5,344C 38.94,327.914 41.6067,311.581 42.5,295C 41.8333,293.667 41.1667,292.333 40.5,291C 29.8231,287.916 20.6564,282.416 13,274.5C 8.71388,264.334 8.38055,254.001 12,243.5C 18.2718,235.275 24.7718,227.275 31.5,219.5C 29.8543,211.768 28.021,204.101 26,196.5C 25.8083,188.262 24.9749,180.095 23.5,172C 25.0458,169.628 24.7124,167.628 22.5,166C 18.5,164.667 14.5,163.333 10.5,162C 8.18672,157.51 4.52006,155.01 -0.5,154.5 Z M 35.5,238.5 C 38.4545,249.78 40.7878,260.946 42.5,272C 41.9747,272.692 41.3081,273.192 40.5,273.5C 34.1142,271.611 28.6142,268.278 24,263.5C 23.2617,259.739 23.5951,256.072 25,252.5C 27.7909,247.228 31.2909,242.562 35.5,238.5 Z M 28.5,367.5 C 29.0768,366.227 29.7435,366.227 30.5,367.5C 30.0302,368.463 29.3635,368.463 28.5,367.5 Z M 29.5,375.5 C 30.7733,376.077 30.7733,376.743 29.5,377.5C 28.537,377.03 28.537,376.363 29.5,375.5 Z M 65.5,413.5 C 82.6158,421.27 86.1158,433.27 76,449.5C 74.3163,451.351 72.4829,453.018 70.5,454.5C 66.4551,441.141 64.7885,427.474 65.5,413.5 Z M 34.5,492.5 C 35.4959,492.414 36.3292,492.748 37,493.5C 37.5488,504.263 36.7155,514.93 34.5,525.5C 22.5034,514.51 22.5034,503.51 34.5,492.5 Z M 62.5,549.5 C 69.8956,549.2 77.229,549.7 84.5,551C 86.3568,555.195 85.3568,558.529 81.5,561C 74.5322,566.069 67.0322,570.235 59,573.5C 58.6258,572.584 58.1258,571.75 57.5,571C 59.1109,564.723 60.4442,558.39 61.5,552C 61.1667,551.667 60.8333,551.333 60.5,551C 61.4158,550.722 62.0825,550.222 62.5,549.5 Z"/></g>
</svg>
