<?xml version="1.0" encoding="UTF-8"?>
<!DOCTYPE svg PUBLIC "-//W3C//DTD SVG 1.1//EN" "http://www.w3.org/Graphics/SVG/1.1/DTD/svg11.dtd">
<svg xmlns="http://www.w3.org/2000/svg" version="1.1" width="91px" height="672px" style="shape-rendering:geometricPrecision; text-rendering:geometricPrecision; image-rendering:optimizeQuality; fill-rule:evenodd; clip-rule:evenodd" xmlns:xlink="http://www.w3.org/1999/xlink">
<g><path style="opacity:0.817" fill="#fefffe" d="M 90.5,29.5 C 90.5,33.1667 90.5,36.8333 90.5,40.5C 85.7865,41.602 81.2865,41.602 77,40.5C 67.4069,44.0694 61.5735,50.5694 59.5,60C 59,60.5 58.5,61 58,61.5C 57.4459,64.6582 56.9459,67.8249 56.5,71C 58.7072,78.3322 60.0405,85.8322 60.5,93.5C 59.9747,100.935 58.808,108.268 57,115.5C 56.3333,124.167 56.3333,132.833 57,141.5C 57.3095,142.766 57.8095,143.933 58.5,145C 57.7884,149.114 57.455,153.281 57.5,157.5C 59.7193,170.043 62.7193,182.377 66.5,194.5C 66.949,197.637 65.949,200.137 63.5,202C 60.2744,203.199 56.941,203.699 53.5,203.5C 50.561,233.524 50.8943,263.524 54.5,293.5C 54.45,299.806 53.1167,305.806 50.5,311.5C 49.675,312.386 48.675,312.719 47.5,312.5C 47.4389,323.14 46.4389,333.64 44.5,344C 45,344.5 45.5,345 46,345.5C 46.1667,351.5 46.3333,357.5 46.5,363.5C 44.7439,463.419 42.5772,563.085 40,662.5C 36.2725,668.212 31.1059,669.879 24.5,667.5C 23.2094,666.175 21.8761,664.842 20.5,663.5C 19.5156,587.833 19.6823,512.167 21,436.5C 21.5,435 22,433.5 22.5,432C 21.1859,413.779 20.5192,395.446 20.5,377C 21.1843,321.502 21.5177,266.002 21.5,210.5C 17.6689,210.249 14.3356,211.416 11.5,214C 8.85397,214.497 6.1873,214.664 3.5,214.5C 2.52096,209.243 4.02096,204.91 8,201.5C 21.7101,165.966 26.7101,129.299 23,91.5C 22,88.5 21,85.5 20,82.5C 12.2454,75.5831 5.41209,67.9164 -0.5,59.5C -0.5,53.1667 -0.5,46.8333 -0.5,40.5C 5.25962,31.6081 13.5929,26.7747 24.5,26C 27.9145,15.7904 34.9145,12.1237 45.5,15C 47.6641,15.9143 49.6641,17.081 51.5,18.5C 63.3832,18.0976 74.7165,20.2643 85.5,25C 87.0375,26.7073 88.7041,28.2073 90.5,29.5 Z"/></g>
</svg>
