<?xml version="1.0" encoding="UTF-8"?>
<!DOCTYPE svg PUBLIC "-//W3C//DTD SVG 1.1//EN" "http://www.w3.org/Graphics/SVG/1.1/DTD/svg11.dtd">
<svg xmlns="http://www.w3.org/2000/svg" version="1.1" width="97px" height="672px" style="shape-rendering:geometricPrecision; text-rendering:geometricPrecision; image-rendering:optimizeQuality; fill-rule:evenodd; clip-rule:evenodd" xmlns:xlink="http://www.w3.org/1999/xlink">
<g><path style="opacity:0.858" fill="#fefffe" d="M -0.5,113.5 C -0.5,103.167 -0.5,92.8333 -0.5,82.5C 2.98108,71.7354 9.31441,62.9021 18.5,56C 16.5218,53.5027 16.0218,50.6693 17,47.5C 20.4049,46.4177 23.9049,45.5844 27.5,45C 21.4845,42.969 19.4845,38.969 21.5,33C 16.3444,26.3248 18.0111,22.4915 26.5,21.5C 27.8732,19.5101 28.8732,17.3434 29.5,15C 31.1667,14.3333 32.8333,14.3333 34.5,15C 37.369,17.5245 40.5357,19.6911 44,21.5C 44.4935,19.8659 44.6602,18.1992 44.5,16.5C 46.2259,16.1854 47.8925,16.0187 49.5,16C 54.8738,20.7715 59.5404,26.1049 63.5,32C 66.0977,31.5783 68.7644,31.5783 71.5,32C 78.4574,37.7467 84.6241,44.2467 90,51.5C 96.9777,66.8765 94.311,80.2099 82,91.5C 78.4104,102.46 73.2437,103.293 66.5,94C 56.7585,92.4107 50.7585,96.4107 48.5,106C 49.0366,110.353 50.2032,114.52 52,118.5C 59.3333,127.167 66.6667,135.833 74,144.5C 75.2622,148.079 76.9289,151.412 79,154.5C 79.6667,157.167 79.6667,159.833 79,162.5C 75.4188,166.909 74.0855,171.909 75,177.5C 77.8662,184.433 80.5329,191.433 83,198.5C 84.0763,205.881 85.4096,213.215 87,220.5C 90.4659,222.934 92.6326,226.101 93.5,230C 93.9614,233.545 92.6281,236.212 89.5,238C 86.4294,238.147 83.5961,238.98 81,240.5C 79.8268,252.122 78.8268,263.788 78,275.5C 76.8877,277.39 76.0544,279.39 75.5,281.5C 77.5281,286.059 80.0281,290.393 83,294.5C 83.6667,299.5 83.6667,304.5 83,309.5C 81.7101,311.792 80.0435,313.792 78,315.5C 74.8529,333.528 71.5195,351.528 68,369.5C 67.3333,373.167 67.3333,376.833 68,380.5C 72.6119,384.406 74.4452,389.406 73.5,395.5C 73.3333,398.167 73.1667,400.833 73,403.5C 70.9197,407.546 68.9197,411.546 67,415.5C 65.4063,423.272 64.2396,431.105 63.5,439C 63.8645,443.303 65.3645,447.137 68,450.5C 69.8258,457.553 68.1591,463.553 63,468.5C 63.5945,475.148 61.7611,480.981 57.5,486C 57.5,488.333 57.5,490.667 57.5,493C 60.9068,496.828 62.2401,501.328 61.5,506.5C 61.6391,510.839 60.9725,515.006 59.5,519C 60.6579,535.759 60.8245,552.593 60,569.5C 58.724,591.459 57.724,613.459 57,635.5C 56.3076,636.025 55.8076,636.692 55.5,637.5C 55.7658,646.258 54.5991,654.925 52,663.5C 50.2871,668.038 47.1205,669.538 42.5,668C 39.171,662.525 37.8377,656.692 38.5,650.5C 36.5422,633.67 35.3755,616.67 35,599.5C 32.2186,591.044 30.7186,582.378 30.5,573.5C 31.48,564.856 32.6467,556.19 34,547.5C 35.0369,531.084 34.3703,514.751 32,498.5C 31,496.5 30,494.5 29,492.5C 28.0987,475.439 28.7654,458.439 31,441.5C 33.1513,436.675 35.318,431.842 37.5,427C 35.0094,420.993 34.0094,414.66 34.5,408C 35.3702,386.391 37.3702,364.891 40.5,343.5C 40.3333,341.167 40.1667,338.833 40,336.5C 35.3494,327.55 33.1827,318.05 33.5,308C 35.4921,298.712 37.9921,289.545 41,280.5C 41.2569,268.123 40.5902,255.79 39,243.5C 34.177,240.052 33.3436,235.886 36.5,231C 34.6711,230.727 33.1711,229.893 32,228.5C 29.871,223.338 29.2044,218.005 30,212.5C 35.2797,206.003 35.7797,199.169 31.5,192C 26.2849,192.169 21.4515,191.003 17,188.5C 15.6661,184.515 16.9995,181.848 21,180.5C 21.6238,175.777 21.2905,171.11 20,166.5C 11.945,148.76 5.11166,131.093 -0.5,113.5 Z"/></g>
</svg>
