<?xml version="1.0" encoding="UTF-8"?>
<!DOCTYPE svg PUBLIC "-//W3C//DTD SVG 1.1//EN" "http://www.w3.org/Graphics/SVG/1.1/DTD/svg11.dtd">
<svg xmlns="http://www.w3.org/2000/svg" version="1.1" width="113px" height="672px" style="shape-rendering:geometricPrecision; text-rendering:geometricPrecision; image-rendering:optimizeQuality; fill-rule:evenodd; clip-rule:evenodd" xmlns:xlink="http://www.w3.org/1999/xlink">
<g><path style="opacity:0.826" fill="#fefffe" d="M 112.5,424.5 C 112.5,435.167 112.5,445.833 112.5,456.5C 109.587,465.634 104.087,472.968 96,478.5C 95.0653,484.187 94.0653,489.854 93,495.5C 90.4836,498.534 88.4836,501.868 87,505.5C 85.8098,525.49 85.4764,545.49 86,565.5C 93.3923,566.864 99.3923,570.531 104,576.5C 106.469,583.214 105.803,589.547 102,595.5C 97.9221,600.249 93.2554,604.249 88,607.5C 87.5291,609.246 86.8624,610.913 86,612.5C 84.7309,627.78 84.0642,643.113 84,658.5C 80.3468,667.41 73.8468,670.576 64.5,668C 62.6711,667.727 61.1711,666.893 60,665.5C 58.7416,662.779 57.4083,660.112 56,657.5C 54.7481,645.199 54.2481,632.866 54.5,620.5C 41.6772,624.051 28.3438,625.218 14.5,624C 11.5385,620.512 12.2052,617.845 16.5,616C 25.3369,613.136 34.3369,610.803 43.5,609C 46.1024,608.023 48.6024,606.856 51,605.5C 49.6531,596.543 50.8198,587.876 54.5,579.5C 54.3918,578.558 54.0585,577.725 53.5,577C 34.8859,575.11 19.3859,567.277 7,553.5C 3.92148,548.676 1.42148,543.676 -0.5,538.5C -0.5,532.167 -0.5,525.833 -0.5,519.5C 3.35142,507.673 10.6848,498.507 21.5,492C 29.5128,487.553 37.8461,483.887 46.5,481C 47.4268,475.615 49.5935,470.449 53,465.5C 53.6667,446.5 53.6667,427.5 53,408.5C 43.7284,405.368 35.395,400.701 28,394.5C 19.4299,382.936 18.2632,370.603 24.5,357.5C 32.1926,347.217 41.6926,338.883 53,332.5C 53.4436,311.558 53.6103,290.725 53.5,270C 50.0069,267.88 47.8402,264.713 47,260.5C 31.0005,248.843 27.0005,233.843 35,215.5C 37.3922,212.772 39.3922,209.772 41,206.5C 45.7169,202.441 50.3836,198.441 55,194.5C 55.6667,186.167 55.6667,177.833 55,169.5C 49.5204,163.396 47.0204,156.229 47.5,148C 46.3621,139.775 49.1955,133.275 56,128.5C 58.0176,125.219 57.8509,122.052 55.5,119C 48.6575,116.922 43.3241,112.922 39.5,107C 37.1667,106.667 34.8333,106.333 32.5,106C 31.1667,104 31.1667,102 32.5,100C 36.7661,98.913 40.7661,97.2464 44.5,95C 49.1548,94.5008 53.8215,94.3342 58.5,94.5C 58.3215,91.7835 57.8215,89.1168 57,86.5C 51.9038,78.906 50.2372,70.5726 52,61.5C 54.4728,57.3822 57.3061,53.5489 60.5,50C 57.7591,45.4521 55.5925,40.6188 54,35.5C 53.3333,30.8333 53.3333,26.1667 54,21.5C 56.8922,18.9426 60.0589,16.776 63.5,15C 70.8245,13.971 77.9911,14.471 85,16.5C 87.0053,18.5053 89.0053,20.5053 91,22.5C 91.7894,28.2367 91.4561,33.9034 90,39.5C 87.802,43.0204 85.6353,46.5204 83.5,50C 86.7191,53.5518 89.5524,57.3851 92,61.5C 92.8045,67.5692 92.4712,73.5692 91,79.5C 88.8944,82.608 87.2277,85.9413 86,89.5C 85.3333,97.5 85.3333,105.5 86,113.5C 91.5458,121.101 96.5458,129.101 101,137.5C 103.8,146.759 104.133,156.093 102,165.5C 97.3197,173.532 92.653,181.532 88,189.5C 87.3333,204.167 87.3333,218.833 88,233.5C 90.3024,237.146 92.6357,240.813 95,244.5C 97.2264,252.352 96.7264,260.019 93.5,267.5C 96.9163,272.663 100.083,277.996 103,283.5C 104.58,292.424 104.913,301.424 104,310.5C 103,313.5 102,316.5 101,319.5C 97.0249,325.801 92.6915,331.801 88,337.5C 87.2282,342.904 87.5615,348.238 89,353.5C 91.1399,354.728 92.8066,356.395 94,358.5C 96.5398,364.756 96.8731,371.089 95,377.5C 92.0822,382.834 89.5822,388.334 87.5,394C 87.7364,398.524 90.0697,401.191 94.5,402C 102.293,408.268 108.293,415.768 112.5,424.5 Z M 53.5,218.5 C 54.6517,223.985 54.8184,229.651 54,235.5C 53.1207,238.346 51.4541,239.013 49,237.5C 47.3831,230.362 48.8831,224.029 53.5,218.5 Z M 88.5,302.5 C 90.337,302.639 90.6704,303.306 89.5,304.5C 88.7025,304.043 88.3691,303.376 88.5,302.5 Z M 47.5,358.5 C 45.4807,364.26 44.9807,370.26 46,376.5C 47.3068,377.772 48.8068,378.772 50.5,379.5C 50.0133,380.446 49.6799,381.446 49.5,382.5C 50.3877,384.155 50.8877,385.822 51,387.5C 40.6877,382.229 37.6877,374.229 42,363.5C 43.7038,361.627 45.5372,359.96 47.5,358.5 Z M 87.5,423.5 C 90.2978,424.706 92.4645,426.706 94,429.5C 99.0811,441.594 96.9144,452.261 87.5,461.5C 87.2589,448.875 87.2589,436.209 87.5,423.5 Z M 47.5,501.5 C 49.1667,501.5 50.8333,501.5 52.5,501.5C 53.9889,521.453 54.6556,541.453 54.5,561.5C 41.3,559.142 30.8,552.475 23,541.5C 17.1908,530.12 18.6908,519.954 27.5,511C 34.3123,507.909 40.979,504.742 47.5,501.5 Z"/></g>
</svg>
