<?xml version="1.0" encoding="UTF-8"?>
<!DOCTYPE svg PUBLIC "-//W3C//DTD SVG 1.1//EN" "http://www.w3.org/Graphics/SVG/1.1/DTD/svg11.dtd">
<svg xmlns="http://www.w3.org/2000/svg" version="1.1" width="69px" height="672px" style="shape-rendering:geometricPrecision; text-rendering:geometricPrecision; image-rendering:optimizeQuality; fill-rule:evenodd; clip-rule:evenodd" xmlns:xlink="http://www.w3.org/1999/xlink">
<g><path style="opacity:0.856" fill="#fefffe" d="M 68.5,19.5 C 68.5,23.8333 68.5,28.1667 68.5,32.5C 62.7652,36.9013 58.0985,42.2347 54.5,48.5C 58.3389,73.5217 61.5055,98.855 64,124.5C 65.8256,130.149 67.3256,135.815 68.5,141.5C 68.5,150.167 68.5,158.833 68.5,167.5C 65.5724,176.94 60.0724,184.607 52,190.5C 50.8151,198.617 49.9817,206.783 49.5,215C 50.2329,226.487 50.7329,237.987 51,249.5C 54.2574,254.432 57.9241,259.098 62,263.5C 62.4974,266.146 62.6641,268.813 62.5,271.5C 58.6494,270.971 55.1494,271.638 52,273.5C 51.7375,294.737 50.5708,315.903 48.5,337C 49.1255,347.65 49.4589,358.317 49.5,369C 48.2536,465.917 45.7536,562.75 42,659.5C 39.306,665.385 34.806,668.052 28.5,667.5C 25.777,667.449 23.1104,667.116 20.5,666.5C 18.476,664.31 16.6427,661.977 15,659.5C 14.9925,592.501 15.3258,525.501 16,458.5C 18.6447,454.989 18.8114,451.489 16.5,448C 16.1729,389.803 16.5062,331.47 17.5,273C 16.8333,272.333 16.1667,271.667 15.5,271C 12.7759,270.73 10.1092,270.23 7.5,269.5C 6.35258,267.235 6.18591,264.902 7,262.5C 11.1177,258.724 14.7844,254.724 18,250.5C 18.6667,231.833 18.6667,213.167 18,194.5C 14.7757,189.268 10.7757,184.601 6,180.5C 3.53937,176.904 1.3727,173.237 -0.5,169.5C -0.5,162.833 -0.5,156.167 -0.5,149.5C 5.42961,126.989 11.2629,104.323 17,81.5C 18.6826,69.3083 20.1826,57.1416 21.5,45C 16.5734,40.9516 11.7401,36.7849 7,32.5C 3.3926,22.0894 7.22593,17.5894 18.5,19C 21.3283,16.4205 24.6616,15.2538 28.5,15.5C 35.0735,18.1853 41.9069,20.1853 49,21.5C 53.9916,20.0133 58.9916,18.3466 64,16.5C 65.2708,17.8825 66.7708,18.8825 68.5,19.5 Z"/></g>
</svg>
